<?xml version="1.0" encoding="UTF-8" standalone="no"?>
<svg
   xmlns:dc="http://purl.org/dc/elements/1.1/"
   xmlns:cc="http://creativecommons.org/ns#"
   xmlns:rdf="http://www.w3.org/1999/02/22-rdf-syntax-ns#"
   xmlns:svg="http://www.w3.org/2000/svg"
   xmlns="http://www.w3.org/2000/svg"
   xmlns:sodipodi="http://sodipodi.sourceforge.net/DTD/sodipodi-0.dtd"
   xmlns:inkscape="http://www.inkscape.org/namespaces/inkscape"
   height="256"
   version="1.1"
   viewBox="0 0 256 256"
   width="256"
   id="svg12"
   sodipodi:docname="info - Copia.svg"
   inkscape:version="1.0.1 (3bc2e813f5, 2020-09-07)"
   inkscape:export-filename="C:\Users\mauro\Documents\Github\parquet-viewer\src\res\imgs\info_qt.png"
   inkscape:export-xdpi="96"
   inkscape:export-ydpi="96">
  <metadata
     id="metadata16">
    <rdf:RDF>
      <cc:Work
         rdf:about="">
        <dc:format>image/svg+xml</dc:format>
        <dc:type
           rdf:resource="http://purl.org/dc/dcmitype/StillImage" />
        <dc:title />
      </cc:Work>
    </rdf:RDF>
  </metadata>
  <sodipodi:namedview
     pagecolor="#ffffff"
     bordercolor="#666666"
     borderopacity="1"
     objecttolerance="10"
     gridtolerance="10"
     guidetolerance="10"
     inkscape:pageopacity="0"
     inkscape:pageshadow="2"
     inkscape:window-width="1920"
     inkscape:window-height="991"
     id="namedview14"
     showgrid="false"
     inkscape:pagecheckerboard="true"
     inkscape:zoom="1.8119611"
     inkscape:cx="5.8610644"
     inkscape:cy="120.18791"
     inkscape:window-x="-9"
     inkscape:window-y="-9"
     inkscape:window-maximized="1"
     inkscape:current-layer="svg12"
     inkscape:document-rotation="0" />
  <desc
     id="desc4" />
  <defs
     id="defs6" />
  <g
     fill="none"
     fill-rule="evenodd"
     id="Page-1"
     stroke="none"
     stroke-width="1"
     transform="matrix(11,0,0,11,18,18)"
     style="fill:#ffffff">
    <g
       fill="#000000"
       id="Core"
       transform="translate(-86,-296)"
       style="fill:#ffffff">
      <g
         id="info-outline"
         transform="translate(86,296)"
         style="fill:#ffffff">
        <path
           d="m 9,15 h 2 V 9 H 9 Z M 10,0 C 4.5,0 0,4.5 0,10 0,15.5 4.5,20 10,20 15.5,20 20,15.5 20,10 20,4.5 15.5,0 10,0 Z m 0,18 C 5.6,18 2,14.4 2,10 2,5.6 5.6,2 10,2 c 4.4,0 8,3.6 8,8 0,4.4 -3.6,8 -8,8 z M 9,7 h 2 V 5 H 9 Z"
           id="Shape"
           style="fill:#ffffff" />
      </g>
    </g>
  </g>
  <rect
     style="fill:#ffffff"
     id="rect11"
     width="141.83528"
     height="87.198341"
     x="99.891769"
     y="130.7975"
     rx="11.3158"
     ry="10" />
  <text
     xml:space="preserve"
     style="font-style:oblique;font-variant:normal;font-weight:bold;font-stretch:semi-condensed;font-size:53.3333px;line-height:1.25;font-family:'DejaVu Sans';-inkscape-font-specification:'DejaVu Sans Bold Oblique Semi-Condensed'"
     x="133.60892"
     y="190.2951"
     id="text17"><tspan
       sodipodi:role="line"
       id="tspan15"
       x="133.60892"
       y="190.2951"
       style="font-style:oblique;font-variant:normal;font-weight:bold;font-stretch:normal;font-size:53.3333px;font-family:'DejaVu Sans';-inkscape-font-specification:'DejaVu Sans Bold Oblique'">Qt</tspan></text>
</svg>
