<?xml version="1.0" encoding="UTF-8" standalone="no"?>
<svg
   xmlns:dc="http://purl.org/dc/elements/1.1/"
   xmlns:cc="http://creativecommons.org/ns#"
   xmlns:rdf="http://www.w3.org/1999/02/22-rdf-syntax-ns#"
   xmlns:svg="http://www.w3.org/2000/svg"
   xmlns="http://www.w3.org/2000/svg"
   xmlns:sodipodi="http://sodipodi.sourceforge.net/DTD/sodipodi-0.dtd"
   xmlns:inkscape="http://www.inkscape.org/namespaces/inkscape"
   height="256"
   viewBox="0 0 256 256"
   width="256"
   version="1.1"
   id="svg11"
   sodipodi:docname="save_json.svg"
   inkscape:version="1.0.1 (3bc2e813f5, 2020-09-07)"
   inkscape:export-filename="C:\Users\mauro\Documents\Github\parquet-viewer\src\res\imgs\save_json.png"
   inkscape:export-xdpi="96"
   inkscape:export-ydpi="96">
  <metadata
     id="metadata17">
    <rdf:RDF>
      <cc:Work
         rdf:about="">
        <dc:format>image/svg+xml</dc:format>
        <dc:type
           rdf:resource="http://purl.org/dc/dcmitype/StillImage" />
        <dc:title />
      </cc:Work>
    </rdf:RDF>
  </metadata>
  <defs
     id="defs15">
    <inkscape:path-effect
       effect="powerclip"
       id="path-effect35"
       is_visible="true"
       lpeversion="1"
       inverse="true"
       flatten="false"
       hide_clip="false"
       message="Use fill-rule evenodd on &lt;b&gt;fill and stroke&lt;/b&gt; dialog if no flatten result after convert clip to paths." />
    <clipPath
       clipPathUnits="userSpaceOnUse"
       id="clipPath23">
      <g
         aria-label="JSON"
         id="g33"
         style="font-style:normal;font-weight:normal;font-size:40px;line-height:1.25;font-family:sans-serif;display:none;fill:#ffffff;fill-opacity:1;stroke:none">
        <path
           d="m 67.044922,121.40039 h 7.519531 v 26.32813 q 0,5.44921 -2.96875,8.14453 -2.949219,2.69531 -8.945312,2.69531 h -1.523438 v -5.68359 h 1.171875 q 2.34375,0 3.535156,-1.3086 1.210938,-1.30859 1.210938,-3.84765 z"
           style="font-style:normal;font-variant:normal;font-weight:bold;font-stretch:normal;font-family:'DejaVu Sans';-inkscape-font-specification:'DejaVu Sans Bold'"
           id="path25" />
        <path
           d="m 102.2207,122.31836 v 6.17187 q -2.402341,-1.07421 -4.687497,-1.62109 -2.285156,-0.54687 -4.316406,-0.54687 -2.695313,0 -3.984375,0.74218 -1.289063,0.74219 -1.289063,2.30469 0,1.17188 0.859375,1.83594 0.878907,0.64453 3.164063,1.11328 l 3.203125,0.64453 q 4.863278,0.97656 6.914058,2.96875 2.05079,1.99219 2.05079,5.66406 0,4.82422 -2.8711,7.1875 -2.851561,2.34375 -8.730467,2.34375 -2.773437,0 -5.566406,-0.52734 -2.792969,-0.52734 -5.585938,-1.5625 v -6.34766 q 2.792969,1.48438 5.390625,2.2461 2.617188,0.74218 5.039063,0.74218 2.460937,0 3.769531,-0.82031 1.308594,-0.82031 1.308594,-2.34375 0,-1.36719 -0.898438,-2.10937 -0.878906,-0.74219 -3.535156,-1.32813 l -2.910156,-0.64453 q -4.375,-0.9375 -6.40625,-2.98828 -2.011719,-2.05078 -2.011719,-5.52734 0,-4.35547 2.8125,-6.69922 2.8125,-2.34375 8.085938,-2.34375 2.402343,0 4.941406,0.37109 2.539062,0.35156 5.253903,1.07422 z"
           style="font-style:normal;font-variant:normal;font-weight:bold;font-stretch:normal;font-family:'DejaVu Sans';-inkscape-font-specification:'DejaVu Sans Bold'"
           id="path27" />
        <path
           d="m 124.05664,126.32227 q -3.4375,0 -5.33203,2.53906 -1.89453,2.53906 -1.89453,7.14844 0,4.58984 1.89453,7.1289 1.89453,2.53906 5.33203,2.53906 3.45703,0 5.35156,-2.53906 1.89453,-2.53906 1.89453,-7.1289 0,-4.60938 -1.89453,-7.14844 -1.89453,-2.53906 -5.35156,-2.53906 z m 0,-5.44922 q 7.03125,0 11.01563,4.02343 3.98437,4.02344 3.98437,11.11329 0,7.07031 -3.98437,11.09375 -3.98438,4.02343 -11.01563,4.02343 -7.01172,0 -11.01562,-4.02343 -3.98438,-4.02344 -3.98438,-11.09375 0,-7.08985 3.98438,-11.11329 4.0039,-4.02343 11.01562,-4.02343 z"
           style="font-style:normal;font-variant:normal;font-weight:bold;font-stretch:normal;font-family:'DejaVu Sans';-inkscape-font-specification:'DejaVu Sans Bold'"
           id="path29" />
        <path
           d="m 144.74023,121.40039 h 8.39844 l 10.60547,20 v -20 h 7.12891 v 29.16016 h -8.39844 l -10.60547,-20 v 20 h -7.12891 z"
           style="font-style:normal;font-variant:normal;font-weight:bold;font-stretch:normal;font-family:'DejaVu Sans';-inkscape-font-specification:'DejaVu Sans Bold'"
           id="path31" />
      </g>
      <path
         id="lpe_path-effect35"
         style="font-style:normal;font-weight:normal;font-size:40px;line-height:1.25;font-family:sans-serif;fill:#ffffff;fill-opacity:1;stroke:none"
         class="powerclip"
         d="m 35,99 h 162 v 74 H 35 Z m 32.044922,22.40039 v 26.32813 q 0,2.53906 -1.210938,3.84765 -1.191406,1.3086 -3.535156,1.3086 h -1.171875 v 5.68359 h 1.523438 q 5.996093,0 8.945312,-2.69531 2.96875,-2.69532 2.96875,-8.14453 v -26.32813 z m 35.175778,0.91797 q -2.714841,-0.72266 -5.253903,-1.07422 -2.539063,-0.37109 -4.941406,-0.37109 -5.273438,0 -8.085938,2.34375 -2.8125,2.34375 -2.8125,6.69922 0,3.47656 2.011719,5.52734 2.03125,2.05078 6.40625,2.98828 l 2.910156,0.64453 q 2.65625,0.58594 3.535156,1.32813 0.898438,0.74218 0.898438,2.10937 0,1.52344 -1.308594,2.34375 -1.308594,0.82031 -3.769531,0.82031 -2.421875,0 -5.039063,-0.74218 -2.597656,-0.76172 -5.390625,-2.2461 v 6.34766 q 2.792969,1.03516 5.585938,1.5625 2.792969,0.52734 5.566406,0.52734 5.878906,0 8.730467,-2.34375 2.8711,-2.36328 2.8711,-7.1875 0,-3.67187 -2.05079,-5.66406 -2.05078,-1.99219 -6.914058,-2.96875 l -3.203125,-0.64453 q -2.285156,-0.46875 -3.164063,-1.11328 -0.859375,-0.66406 -0.859375,-1.83594 0,-1.5625 1.289063,-2.30469 1.289062,-0.74218 3.984375,-0.74218 2.03125,0 4.316406,0.54687 2.285156,0.54688 4.687497,1.62109 z m 21.83594,4.00391 q -3.4375,0 -5.33203,2.53906 -1.89453,2.53906 -1.89453,7.14844 0,4.58984 1.89453,7.1289 1.89453,2.53906 5.33203,2.53906 3.45703,0 5.35156,-2.53906 1.89453,-2.53906 1.89453,-7.1289 0,-4.60938 -1.89453,-7.14844 -1.89453,-2.53906 -5.35156,-2.53906 z m 0,-5.44922 q -7.01172,0 -11.01562,4.02343 -3.98438,4.02344 -3.98438,11.11329 0,7.07031 3.98438,11.09375 4.0039,4.02343 11.01562,4.02343 7.03125,0 11.01563,-4.02343 3.98437,-4.02344 3.98437,-11.09375 0,-7.08985 -3.98437,-11.11329 -3.98438,-4.02343 -11.01563,-4.02343 z m 20.68359,0.52734 v 29.16016 h 7.12891 v -20 l 10.60547,20 h 8.39844 v -29.16016 h -7.12891 v 20 l -10.60547,-20 z" />
    </clipPath>
  </defs>
  <sodipodi:namedview
     pagecolor="#ffffff"
     bordercolor="#666666"
     borderopacity="1"
     objecttolerance="10"
     gridtolerance="10"
     guidetolerance="10"
     inkscape:pageopacity="0"
     inkscape:pageshadow="2"
     inkscape:window-width="1920"
     inkscape:window-height="991"
     id="namedview13"
     showgrid="false"
     inkscape:pagecheckerboard="true"
     showguides="false"
     inkscape:zoom="3.203125"
     inkscape:cx="157.75613"
     inkscape:cy="176.72121"
     inkscape:window-x="-9"
     inkscape:window-y="-9"
     inkscape:window-maximized="1"
     inkscape:current-layer="g8"
     inkscape:document-rotation="0" />
  <g
     id="csv">
    <g
       id="g8">
      <path
         d="M200,8H64A16.018,16.018,0,0,0,48,24V96h8V24a8.009,8.009,0,0,1,8-8H200a8.009,8.009,0,0,1,8,8V191.029a8.113,8.113,0,0,1-.065.971H172a12.014,12.014,0,0,0-12,12v35.935a8.113,8.113,0,0,1-.971.065H64a8.009,8.009,0,0,1-8-8V176H48v56a16.018,16.018,0,0,0,16,16h95.029a15.9,15.9,0,0,0,11.314-4.686l40.971-40.971A15.9,15.9,0,0,0,216,191.029V24A16.018,16.018,0,0,0,200,8Z"
         id="path6"
         style="fill:#ffffff" />
      <path
         style="fill:#ffffff;stroke-width:1.19769"
         id="rect19"
         width="152"
         height="64"
         x="40"
         y="104"
         rx="10"
         ry="10"
         clip-path="url(#clipPath23)"
         inkscape:path-effect="#path-effect35"
         d="m 50,104 h 132 c 5.54,0 10,4.46 10,10 v 44 c 0,5.54 -4.46,10 -10,10 H 50 c -5.54,0 -10,-4.46 -10,-10 v -44 c 0,-5.54 4.46,-10 10,-10 z"
         sodipodi:type="rect" />
    </g>
    <text
       xml:space="preserve"
       style="font-style:normal;font-weight:normal;font-size:40px;line-height:1.25;font-family:sans-serif;fill:#ffffff;fill-opacity:1;stroke:none;"
       x="56.507317"
       y="137.36584"
       id="text23"><tspan
         sodipodi:role="line"
         id="tspan21"
         x="56.507317"
         y="137.36584" /></text>
  </g>
</svg>
