<?xml version="1.0" encoding="UTF-8" standalone="no"?>
<svg
   xmlns:dc="http://purl.org/dc/elements/1.1/"
   xmlns:cc="http://creativecommons.org/ns#"
   xmlns:rdf="http://www.w3.org/1999/02/22-rdf-syntax-ns#"
   xmlns:svg="http://www.w3.org/2000/svg"
   xmlns="http://www.w3.org/2000/svg"
   xmlns:sodipodi="http://sodipodi.sourceforge.net/DTD/sodipodi-0.dtd"
   xmlns:inkscape="http://www.inkscape.org/namespaces/inkscape"
   height="256"
   viewBox="0 0 256 256"
   width="256"
   version="1.1"
   id="svg11"
   sodipodi:docname="save_parquet.svg"
   inkscape:version="1.0.1 (3bc2e813f5, 2020-09-07)"
   inkscape:export-filename="C:\Users\mauro\Documents\Github\parquet-viewer\src\res\imgs\save_parquet.png"
   inkscape:export-xdpi="96"
   inkscape:export-ydpi="96">
  <metadata
     id="metadata17">
    <rdf:RDF>
      <cc:Work
         rdf:about="">
        <dc:format>image/svg+xml</dc:format>
        <dc:type
           rdf:resource="http://purl.org/dc/dcmitype/StillImage" />
        <dc:title />
      </cc:Work>
    </rdf:RDF>
  </metadata>
  <defs
     id="defs15">
    <inkscape:path-effect
       effect="powerclip"
       id="path-effect57"
       is_visible="true"
       lpeversion="1"
       inverse="true"
       flatten="false"
       hide_clip="false"
       message="Use fill-rule evenodd on &lt;b&gt;fill and stroke&lt;/b&gt; dialog if no flatten result after convert clip to paths." />
    <clipPath
       clipPathUnits="userSpaceOnUse"
       id="clipPath39">
      <g
         aria-label="Parquet"
         id="g55"
         style="font-style:normal;font-weight:normal;font-size:40px;line-height:1.25;font-family:sans-serif;display:none;fill:#ffffff;fill-opacity:1;stroke:none">
        <path
           d="m 19.134766,117.25977 h 12.480468 q 5.566407,0 8.535157,2.48046 2.988281,2.46094 2.988281,7.03125 0,4.58985 -2.988281,7.07032 -2.96875,2.46093 -8.535157,2.46093 h -4.960937 v 10.11719 h -7.519531 z m 7.519531,5.44921 v 8.14454 h 4.160156 q 2.1875,0 3.378906,-1.05469 1.191407,-1.07422 1.191407,-3.02735 0,-1.95312 -1.191407,-3.00781 -1.191406,-1.05469 -3.378906,-1.05469 z"
           style="font-style:normal;font-variant:normal;font-weight:bold;font-stretch:normal;font-family:'DejaVu Sans';-inkscape-font-specification:'DejaVu Sans Bold'"
           id="path41" />
        <path
           d="m 56.869141,136.57617 q -2.1875,0 -3.300782,0.74219 -1.09375,0.74219 -1.09375,2.1875 0,1.32812 0.878907,2.08984 0.898437,0.74219 2.480468,0.74219 1.972657,0 3.320313,-1.40625 1.347656,-1.42578 1.347656,-3.55469 v -0.80078 z m 10.683593,-2.63672 v 12.48047 h -7.050781 v -3.24219 q -1.40625,1.99219 -3.164062,2.91016 -1.757813,0.89844 -4.277344,0.89844 -3.398438,0 -5.527344,-1.97266 -2.109375,-1.99219 -2.109375,-5.15625 0,-3.84765 2.636719,-5.64453 2.65625,-1.79687 8.320312,-1.79687 h 4.121094 v -0.54688 q 0,-1.66016 -1.308594,-2.42187 -1.308593,-0.78125 -4.082031,-0.78125 -2.246094,0 -4.179687,0.44921 -1.933594,0.44922 -3.59375,1.34766 v -5.33203 q 2.246093,-0.54688 4.511718,-0.82031 2.265625,-0.29297 4.53125,-0.29297 5.917969,0 8.535157,2.34375 2.636718,2.32422 2.636718,7.57812 z"
           style="font-style:normal;font-variant:normal;font-weight:bold;font-stretch:normal;font-family:'DejaVu Sans';-inkscape-font-specification:'DejaVu Sans Bold'"
           id="path43" />
        <path
           d="m 90.306641,130.50195 q -0.917969,-0.42968 -1.835938,-0.625 -0.898437,-0.21484 -1.816406,-0.21484 -2.695313,0 -4.160156,1.73828 -1.445313,1.71875 -1.445313,4.94141 v 10.07812 h -6.992187 v -21.875 h 6.992187 v 3.59375 q 1.347656,-2.14844 3.085938,-3.125 1.757812,-0.99609 4.199218,-0.99609 0.351563,0 0.761719,0.0391 0.410156,0.0195 1.191406,0.11719 z"
           style="font-style:normal;font-variant:normal;font-weight:bold;font-stretch:normal;font-family:'DejaVu Sans';-inkscape-font-specification:'DejaVu Sans Bold'"
           id="path45" />
        <path
           d="m 104.05664,129.0957 q -2.22656,0 -3.41797,1.64063 -1.171873,1.64062 -1.171873,4.76562 0,3.125 1.171873,4.76563 1.19141,1.64062 3.41797,1.64062 2.24609,0 3.41797,-1.64062 1.19141,-1.64063 1.19141,-4.76563 0,-3.125 -1.19141,-4.76562 -1.17188,-1.64063 -3.41797,-1.64063 z m 4.60938,14.16016 q -1.44532,1.93359 -3.1836,2.83203 -1.73828,0.89844 -4.02344,0.89844 -4.042964,0 -6.640621,-3.20313 -2.597656,-3.22265 -2.597656,-8.28125 0,-5.05859 2.597656,-8.24218 2.597657,-3.20313 6.640621,-3.20313 2.28516,0 4.02344,0.89844 1.73828,0.89844 3.1836,2.83203 v -3.24219 h 7.03125 v 30.19531 h -7.03125 z"
           style="font-style:normal;font-variant:normal;font-weight:bold;font-stretch:normal;font-family:'DejaVu Sans';-inkscape-font-specification:'DejaVu Sans Bold'"
           id="path47" />
        <path
           d="m 122.18164,137.9043 v -13.35938 h 7.03125 v 2.1875 q 0,1.77735 -0.0195,4.47266 -0.0195,2.67578 -0.0195,3.57422 0,2.63672 0.13672,3.80859 0.13672,1.15234 0.46875,1.67969 0.42968,0.68359 1.11328,1.05469 0.70312,0.37109 1.60156,0.37109 2.1875,0 3.4375,-1.67969 1.25,-1.67969 1.25,-4.66797 v -10.80078 h 6.99219 v 21.875 h -6.99219 v -3.16406 q -1.58203,1.91406 -3.35937,2.83203 -1.75782,0.89844 -3.88672,0.89844 -3.78907,0 -5.78125,-2.32422 -1.97266,-2.32422 -1.97266,-6.75781 z"
           style="font-style:normal;font-variant:normal;font-weight:bold;font-stretch:normal;font-family:'DejaVu Sans';-inkscape-font-specification:'DejaVu Sans Bold'"
           id="path49" />
        <path
           d="m 172.72852,135.42383 v 1.99219 h -16.34766 q 0.25391,2.46093 1.77734,3.6914 1.52344,1.23047 4.25782,1.23047 2.20703,0 4.51171,-0.64453 2.32422,-0.66406 4.76563,-1.99219 v 5.39063 q -2.48047,0.9375 -4.96094,1.40625 -2.48047,0.48828 -4.96094,0.48828 -5.9375,0 -9.23828,-3.00781 -3.28125,-3.02735 -3.28125,-8.47657 0,-5.35156 3.22266,-8.41797 3.24219,-3.0664 8.90625,-3.0664 5.15625,0 8.24219,3.10547 3.10547,3.10547 3.10547,8.30078 z m -7.1875,-2.32422 q 0,-1.99219 -1.17188,-3.20313 -1.15234,-1.23046 -3.02734,-1.23046 -2.03125,0 -3.30078,1.15234 -1.26954,1.13281 -1.58204,3.28125 z"
           style="font-style:normal;font-variant:normal;font-weight:bold;font-stretch:normal;font-family:'DejaVu Sans';-inkscape-font-specification:'DejaVu Sans Bold'"
           id="path51" />
        <path
           d="m 185.6582,118.33398 v 6.21094 h 7.20703 v 5 h -7.20703 v 9.27735 q 0,1.52343 0.60547,2.07031 0.60547,0.52734 2.40235,0.52734 h 3.59375 v 5 h -5.9961 q -4.14062,0 -5.8789,-1.71875 -1.71875,-1.73828 -1.71875,-5.8789 v -9.27735 h -3.47657 v -5 h 3.47657 v -6.21094 z"
           style="font-style:normal;font-variant:normal;font-weight:bold;font-stretch:normal;font-family:'DejaVu Sans';-inkscape-font-specification:'DejaVu Sans Bold'"
           id="path53" />
      </g>
      <path
         id="lpe_path-effect57"
         style="font-style:normal;font-weight:normal;font-size:40px;line-height:1.25;font-family:sans-serif;fill:#ffffff;fill-opacity:1;stroke:none"
         class="powerclip"
         d="m 10,99 h 192 v 74 H 10 Z m 9.134766,18.25977 v 29.16015 h 7.519531 v -10.11719 h 4.960937 q 5.566407,0 8.535157,-2.46093 2.988281,-2.48047 2.988281,-7.07032 0,-4.57031 -2.988281,-7.03125 -2.96875,-2.48046 -8.535157,-2.48046 z m 7.519531,5.44921 v 8.14454 h 4.160156 q 2.1875,0 3.378906,-1.05469 1.191407,-1.07422 1.191407,-3.02735 0,-1.95312 -1.191407,-3.00781 -1.191406,-1.05469 -3.378906,-1.05469 z m 30.214844,13.86719 q -2.1875,0 -3.300782,0.74219 -1.09375,0.74219 -1.09375,2.1875 0,1.32812 0.878907,2.08984 0.898437,0.74219 2.480468,0.74219 1.972657,0 3.320313,-1.40625 1.347656,-1.42578 1.347656,-3.55469 v -0.80078 z m 10.683593,-2.63672 q 0,-5.2539 -2.636718,-7.57812 -2.617188,-2.34375 -8.535157,-2.34375 -2.265625,0 -4.53125,0.29297 -2.265625,0.27343 -4.511718,0.82031 v 5.33203 q 1.660156,-0.89844 3.59375,-1.34766 1.933593,-0.44921 4.179687,-0.44921 2.773438,0 4.082031,0.78125 1.308594,0.76171 1.308594,2.42187 v 0.54688 h -4.121094 q -5.664062,0 -8.320312,1.79687 -2.636719,1.79688 -2.636719,5.64453 0,3.16406 2.109375,5.15625 2.128906,1.97266 5.527344,1.97266 2.519531,0 4.277344,-0.89844 1.757812,-0.91797 3.164062,-2.91016 v 3.24219 h 7.050781 z m 22.753907,-3.4375 -0.01953,-6.32808 q -0.78125,-0.0977 -1.191406,-0.11719 -0.410156,-0.0391 -0.761719,-0.0391 -2.441406,0 -4.199218,0.99609 -1.738282,0.97656 -3.085938,3.125 v -3.59375 h -6.992187 v 21.875 H 81.04883 V 136.3418 q 0,-3.22266 1.445313,-4.94141 1.464843,-1.73828 4.160156,-1.73828 0.917969,0 1.816406,0.21484 0.917969,0.19532 1.835938,0.625 z m 13.749999,-1.40625 q -2.22656,0 -3.41797,1.64063 -1.171873,1.64062 -1.171873,4.76562 0,3.125 1.171873,4.76563 1.19141,1.64062 3.41797,1.64062 2.24609,0 3.41797,-1.64062 1.19141,-1.64063 1.19141,-4.76563 0,-3.125 -1.19141,-4.76562 -1.17188,-1.64063 -3.41797,-1.64063 z m 4.60938,14.16016 v 11.48437 h 7.03125 v -30.19531 h -7.03125 v 3.24219 q -1.44532,-1.93359 -3.1836,-2.83203 -1.73828,-0.89844 -4.02344,-0.89844 -4.042964,0 -6.640621,3.20313 -2.597656,3.18359 -2.597656,8.24218 0,5.0586 2.597656,8.28125 2.597657,3.20313 6.640621,3.20313 2.28516,0 4.02344,-0.89844 1.73828,-0.89844 3.1836,-2.83203 z m 13.51562,-5.35156 h 6e-5 q 0,4.43359 1.97266,6.75781 1.99218,2.32422 5.78125,2.32422 2.1289,0 3.88672,-0.89844 1.77734,-0.91797 3.35937,-2.83203 v 3.16406 h 6.99219 v -21.875 h -6.99219 v 10.80078 q 0,2.98828 -1.25,4.66797 -1.25,1.67969 -3.4375,1.67969 -0.89844,0 -1.60156,-0.37109 -0.6836,-0.3711 -1.11328,-1.05469 -0.33203,-0.52735 -0.46875,-1.67969 -0.13672,-1.17187 -0.13672,-3.80859 0,-0.89844 0.0195,-3.57422 0.0195,-2.69531 0.0195,-4.47266 v -2.1875 h -7.03125 z m 50.54688,-2.48047 q 0,-5.19531 -3.10547,-8.30078 -3.08594,-3.10547 -8.24219,-3.10547 -5.66406,0 -8.90625,3.0664 -3.22266,3.06641 -3.22266,8.41797 0,5.44922 3.28125,8.47657 3.30078,3.00781 9.23828,3.00781 2.48047,0 4.96094,-0.48828 2.48047,-0.46875 4.96094,-1.40625 v -5.39063 q -2.44141,1.32813 -4.76563,1.99219 -2.30468,0.64453 -4.51171,0.64453 -2.73438,0 -4.25782,-1.23047 -1.52343,-1.23047 -1.77734,-3.6914 h 16.34766 z m -7.1875,-2.32422 q 0,-1.99219 -1.17188,-3.20313 -1.15234,-1.23046 -3.02734,-1.23046 -2.03125,0 -3.30078,1.15234 -1.26954,1.13281 -1.58204,3.28125 z m 20.11718,-14.76563 h -6.99218 v 6.21094 h -3.47657 v 5 h 3.47657 v 9.27735 q 0,4.14062 1.71875,5.8789 1.73828,1.71875 5.8789,1.71875 h 5.9961 v -5 h -3.59375 q -1.79688,0 -2.40235,-0.52734 -0.60547,-0.54688 -0.60547,-2.07031 v -9.27735 h 7.20703 v -5 h -7.20703 z" />
    </clipPath>
  </defs>
  <sodipodi:namedview
     pagecolor="#ffffff"
     bordercolor="#666666"
     borderopacity="1"
     objecttolerance="10"
     gridtolerance="10"
     guidetolerance="10"
     inkscape:pageopacity="0"
     inkscape:pageshadow="2"
     inkscape:window-width="1920"
     inkscape:window-height="991"
     id="namedview13"
     showgrid="false"
     inkscape:pagecheckerboard="true"
     showguides="false"
     inkscape:zoom="3.203125"
     inkscape:cx="-26.78632"
     inkscape:cy="78.430722"
     inkscape:window-x="-9"
     inkscape:window-y="-9"
     inkscape:window-maximized="1"
     inkscape:current-layer="g8"
     inkscape:document-rotation="0" />
  <g
     id="csv">
    <g
       id="g8">
      <path
         d="M200,8H64A16.018,16.018,0,0,0,48,24V96h8V24a8.009,8.009,0,0,1,8-8H200a8.009,8.009,0,0,1,8,8V191.029a8.113,8.113,0,0,1-.065.971H172a12.014,12.014,0,0,0-12,12v35.935a8.113,8.113,0,0,1-.971.065H64a8.009,8.009,0,0,1-8-8V176H48v56a16.018,16.018,0,0,0,16,16h95.029a15.9,15.9,0,0,0,11.314-4.686l40.971-40.971A15.9,15.9,0,0,0,216,191.029V24A16.018,16.018,0,0,0,200,8Z"
         id="path6"
         style="fill:#ffffff" />
      <path
         style="fill:#ffffff;stroke-width:1.31056"
         id="rect19"
         width="182"
         height="64"
         x="15"
         y="104"
         rx="11.973684"
         ry="10"
         sodipodi:type="rect"
         clip-path="url(#clipPath39)"
         inkscape:path-effect="#path-effect57"
         d="M 26.973684,104 H 185.02632 C 191.65974,104 197,108.46 197,114 v 44 c 0,5.54 -5.34026,10 -11.97368,10 H 26.973684 C 20.340263,168 15,163.54 15,158 v -44 c 0,-5.54 5.340263,-10 11.973684,-10 z" />
    </g>
    <text
       xml:space="preserve"
       style="font-style:normal;font-weight:normal;font-size:40px;line-height:1.25;font-family:sans-serif;fill:#ffffff;fill-opacity:1;stroke:none;"
       x="56.507317"
       y="137.36584"
       id="text23"><tspan
         sodipodi:role="line"
         id="tspan21"
         x="56.507317"
         y="137.36584" /></text>
  </g>
</svg>
