<?xml version="1.0" encoding="UTF-8" standalone="no"?>
<svg
   height="256"
   viewBox="0 0 256 256"
   width="256"
   version="1.1"
   id="svg11"
   sodipodi:docname="save_xlsx.svg"
   inkscape:version="1.2.2 (732a01da63, 2022-12-09)"
   inkscape:export-filename="save_xlsx.png"
   inkscape:export-xdpi="96"
   inkscape:export-ydpi="96"
   xmlns:inkscape="http://www.inkscape.org/namespaces/inkscape"
   xmlns:sodipodi="http://sodipodi.sourceforge.net/DTD/sodipodi-0.dtd"
   xmlns="http://www.w3.org/2000/svg"
   xmlns:svg="http://www.w3.org/2000/svg"
   xmlns:rdf="http://www.w3.org/1999/02/22-rdf-syntax-ns#"
   xmlns:cc="http://creativecommons.org/ns#"
   xmlns:dc="http://purl.org/dc/elements/1.1/">
  <metadata
     id="metadata17">
    <rdf:RDF>
      <cc:Work
         rdf:about="">
        <dc:format>image/svg+xml</dc:format>
        <dc:type
           rdf:resource="http://purl.org/dc/dcmitype/StillImage" />
        <dc:title />
      </cc:Work>
    </rdf:RDF>
  </metadata>
  <defs
     id="defs15">
    <inkscape:path-effect
       effect="powerclip"
       id="path-effect411"
       is_visible="true"
       lpeversion="1"
       inverse="true"
       flatten="false"
       hide_clip="false"
       message="Usar a regra de preenchimento par ou ímpar na caixa de diálogo &lt;b&gt;preenchimento e contorno&lt;/b&gt; se nenhum resultado nivelar após converter o clipe em caminhos." />
    <inkscape:path-effect
       effect="powerclip"
       id="path-effect35"
       is_visible="true"
       lpeversion="1"
       inverse="true"
       flatten="false"
       hide_clip="false"
       message="Use fill-rule evenodd on &lt;b&gt;fill and stroke&lt;/b&gt; dialog if no flatten result after convert clip to paths." />
    <clipPath
       clipPathUnits="userSpaceOnUse"
       id="clipPath23">
      <g
         aria-label="JSON"
         id="g33"
         style="font-style:normal;font-weight:normal;font-size:40px;line-height:1.25;font-family:sans-serif;display:block;fill:#ffffff;fill-opacity:1;stroke:none">
        <path
           d="m 67.044922,121.40039 h 7.519531 v 26.32813 q 0,5.44921 -2.96875,8.14453 -2.949219,2.69531 -8.945312,2.69531 h -1.523438 v -5.68359 h 1.171875 q 2.34375,0 3.535156,-1.3086 1.210938,-1.30859 1.210938,-3.84765 z"
           style="font-style:normal;font-variant:normal;font-weight:bold;font-stretch:normal;font-family:'DejaVu Sans';-inkscape-font-specification:'DejaVu Sans Bold'"
           id="path25" />
        <path
           d="m 102.2207,122.31836 v 6.17187 q -2.402341,-1.07421 -4.687497,-1.62109 -2.285156,-0.54687 -4.316406,-0.54687 -2.695313,0 -3.984375,0.74218 -1.289063,0.74219 -1.289063,2.30469 0,1.17188 0.859375,1.83594 0.878907,0.64453 3.164063,1.11328 l 3.203125,0.64453 q 4.863278,0.97656 6.914058,2.96875 2.05079,1.99219 2.05079,5.66406 0,4.82422 -2.8711,7.1875 -2.851561,2.34375 -8.730467,2.34375 -2.773437,0 -5.566406,-0.52734 -2.792969,-0.52734 -5.585938,-1.5625 v -6.34766 q 2.792969,1.48438 5.390625,2.2461 2.617188,0.74218 5.039063,0.74218 2.460937,0 3.769531,-0.82031 1.308594,-0.82031 1.308594,-2.34375 0,-1.36719 -0.898438,-2.10937 -0.878906,-0.74219 -3.535156,-1.32813 l -2.910156,-0.64453 q -4.375,-0.9375 -6.40625,-2.98828 -2.011719,-2.05078 -2.011719,-5.52734 0,-4.35547 2.8125,-6.69922 2.8125,-2.34375 8.085938,-2.34375 2.402343,0 4.941406,0.37109 2.539062,0.35156 5.253903,1.07422 z"
           style="font-style:normal;font-variant:normal;font-weight:bold;font-stretch:normal;font-family:'DejaVu Sans';-inkscape-font-specification:'DejaVu Sans Bold'"
           id="path27" />
        <path
           d="m 124.05664,126.32227 q -3.4375,0 -5.33203,2.53906 -1.89453,2.53906 -1.89453,7.14844 0,4.58984 1.89453,7.1289 1.89453,2.53906 5.33203,2.53906 3.45703,0 5.35156,-2.53906 1.89453,-2.53906 1.89453,-7.1289 0,-4.60938 -1.89453,-7.14844 -1.89453,-2.53906 -5.35156,-2.53906 z m 0,-5.44922 q 7.03125,0 11.01563,4.02343 3.98437,4.02344 3.98437,11.11329 0,7.07031 -3.98437,11.09375 -3.98438,4.02343 -11.01563,4.02343 -7.01172,0 -11.01562,-4.02343 -3.98438,-4.02344 -3.98438,-11.09375 0,-7.08985 3.98438,-11.11329 4.0039,-4.02343 11.01562,-4.02343 z"
           style="font-style:normal;font-variant:normal;font-weight:bold;font-stretch:normal;font-family:'DejaVu Sans';-inkscape-font-specification:'DejaVu Sans Bold'"
           id="path29" />
        <path
           d="m 144.74023,121.40039 h 8.39844 l 10.60547,20 v -20 h 7.12891 v 29.16016 h -8.39844 l -10.60547,-20 v 20 h -7.12891 z"
           style="font-style:normal;font-variant:normal;font-weight:bold;font-stretch:normal;font-family:'DejaVu Sans';-inkscape-font-specification:'DejaVu Sans Bold'"
           id="path31" />
      </g>
    </clipPath>
    <clipPath
       clipPathUnits="userSpaceOnUse"
       id="clipPath399">
      <g
         aria-label="XLSX"
         id="g409"
         style="font-size:40px;line-height:1.25;font-family:'DejaVu Sans';-inkscape-font-specification:'DejaVu Sans';display:none;fill:#ffffff">
        <path
           d="m 81.929684,135.28304 9.101562,14.88281 h -7.050781 l -6.132813,-9.96094 -6.074218,9.96094 H 64.68359 l 9.101562,-14.88281 -8.75,-14.27735 h 7.070313 l 5.742187,9.39453 5.742188,-9.39453 h 7.089844 z"
           style="font-weight:bold;font-stretch:semi-condensed;-inkscape-font-specification:'DejaVu Sans Bold Semi-Condensed'"
           id="path401" />
        <path
           d="m 95.054684,121.00569 h 6.777346 v 23.47656 h 11.875 v 5.6836 H 95.054684 Z"
           style="font-weight:bold;font-stretch:semi-condensed;-inkscape-font-specification:'DejaVu Sans Bold Semi-Condensed'"
           id="path403" />
        <path
           d="m 136.24609,121.92366 v 6.17188 q -2.14844,-1.07422 -4.21875,-1.6211 -2.05078,-0.54687 -3.88672,-0.54687 -2.42187,0 -3.59375,0.74218 -1.15234,0.74219 -1.15234,2.30469 0,1.17188 0.78125,1.83594 0.78125,0.64453 2.85156,1.11328 l 2.87109,0.64453 q 4.39453,0.97656 6.23047,2.96875 1.83594,1.99219 1.83594,5.66406 0,4.82422 -2.57813,7.1875 -2.55859,2.34375 -7.85156,2.34375 -2.5,0 -5.01953,-0.52734 -2.5,-0.52734 -5.01953,-1.5625 v -6.34766 q 2.51953,1.48438 4.86328,2.2461 2.34375,0.74219 4.53125,0.74219 2.20703,0 3.37891,-0.82032 1.1914,-0.82031 1.1914,-2.34375 0,-1.36718 -0.80078,-2.10937 -0.80078,-0.74219 -3.20312,-1.32813 l -2.61719,-0.64453 q -3.92578,-0.9375 -5.76172,-2.98828 -1.81641,-2.05078 -1.81641,-5.52734 0,-4.35547 2.53907,-6.69922 2.53906,-2.34375 7.26562,-2.34375 2.16797,0 4.45313,0.37109 2.28515,0.35156 4.72656,1.07422 z"
           style="font-weight:bold;font-stretch:semi-condensed;-inkscape-font-specification:'DejaVu Sans Bold Semi-Condensed'"
           id="path405" />
        <path
           d="m 158.53125,135.28304 9.10156,14.88281 h -7.05078 l -6.13282,-9.96094 -6.07421,9.96094 h -7.08985 l 9.10156,-14.88281 -8.75,-14.27735 h 7.07032 l 5.74218,9.39453 5.74219,-9.39453 h 7.08985 z"
           style="font-weight:bold;font-stretch:semi-condensed;-inkscape-font-specification:'DejaVu Sans Bold Semi-Condensed'"
           id="path407" />
      </g>
      <path
         id="lpe_path-effect411"
         style="font-size:40px;line-height:1.25;font-family:'DejaVu Sans';-inkscape-font-specification:'DejaVu Sans';fill:#ffffff"
         class="powerclip"
         d="m 35,99 h 162 v 74 H 35 Z m 46.929684,36.28304 8.75,-14.27735 H 83.58984 l -5.742188,9.39453 -5.742187,-9.39453 h -7.070313 l 8.75,14.27735 -9.101562,14.88281 h 7.089844 l 6.074218,-9.96094 6.132813,9.96094 h 7.050781 z m 13.125,-14.27735 v 29.16016 h 18.652346 v -5.6836 h -11.875 v -23.47656 z m 41.191406,0.91797 q -2.44141,-0.72266 -4.72656,-1.07422 -2.28516,-0.37109 -4.45313,-0.37109 -4.72656,0 -7.26562,2.34375 -2.53907,2.34375 -2.53907,6.69922 0,3.47656 1.81641,5.52734 1.83594,2.05078 5.76172,2.98828 l 2.61719,0.64453 q 2.40234,0.58594 3.20312,1.32813 0.80078,0.74219 0.80078,2.10937 0,1.52344 -1.1914,2.34375 -1.17188,0.82032 -3.37891,0.82032 -2.1875,0 -4.53125,-0.74219 -2.34375,-0.76172 -4.86328,-2.2461 v 6.34766 q 2.51953,1.03516 5.01953,1.5625 2.51953,0.52734 5.01953,0.52734 5.29297,0 7.85156,-2.34375 2.57813,-2.36328 2.57813,-7.1875 0,-3.67187 -1.83594,-5.66406 -1.83594,-1.99219 -6.23047,-2.96875 l -2.87109,-0.64453 q -2.07031,-0.46875 -2.85156,-1.11328 -0.78125,-0.66406 -0.78125,-1.83594 0,-1.5625 1.15234,-2.30469 1.17188,-0.74218 3.59375,-0.74218 1.83594,0 3.88672,0.54687 2.07031,0.54688 4.21875,1.6211 z m 22.28516,13.35938 8.75,-14.27735 h -7.08985 l -5.74219,9.39453 -5.74218,-9.39453 h -7.07032 l 8.75,14.27735 -9.10156,14.88281 h 7.08985 l 6.07421,-9.96094 6.13282,9.96094 h 7.05078 z" />
    </clipPath>
  </defs>
  <sodipodi:namedview
     pagecolor="#ffffff"
     bordercolor="#666666"
     borderopacity="1"
     objecttolerance="10"
     gridtolerance="10"
     guidetolerance="10"
     inkscape:pageopacity="0"
     inkscape:pageshadow="2"
     inkscape:window-width="1920"
     inkscape:window-height="991"
     id="namedview13"
     showgrid="false"
     inkscape:pagecheckerboard="true"
     showguides="false"
     inkscape:zoom="3.203125"
     inkscape:cx="157.65854"
     inkscape:cy="129.09268"
     inkscape:window-x="-9"
     inkscape:window-y="-9"
     inkscape:window-maximized="1"
     inkscape:current-layer="g8"
     inkscape:document-rotation="0"
     inkscape:showpageshadow="0"
     inkscape:deskcolor="#d1d1d1" />
  <g
     id="csv">
    <g
       id="g8"
       style="fill:#000000">
      <path
         d="M 200,8 H 64 A 16.018,16.018 0 0 0 48,24 v 72 h 8 V 24 a 8.009,8.009 0 0 1 8,-8 h 136 a 8.009,8.009 0 0 1 8,8 V 191.029 A 8.113,8.113 0 0 1 207.935,192 H 172 a 12.014,12.014 0 0 0 -12,12 v 35.935 A 8.113,8.113 0 0 1 159.029,240 H 64 a 8.009,8.009 0 0 1 -8,-8 v -56 h -8 v 56 a 16.018,16.018 0 0 0 16,16 h 95.029 a 15.9,15.9 0 0 0 11.314,-4.686 l 40.971,-40.971 A 15.9,15.9 0 0 0 216,191.029 V 24 A 16.018,16.018 0 0 0 200,8 Z"
         id="path6"
         style="fill:#ffffff" />
      <rect
         style="fill:#ffffff;stroke-width:1.35268"
         id="rect282"
         width="152"
         height="64"
         x="40"
         y="104"
         rx="15.26254"
         ry="11.988304"
         clip-path="url(#clipPath399)"
         inkscape:path-effect="#path-effect411"
         d="M 55.26254,104 H 176.73746 C 185.19291,104 192,109.34678 192,115.9883 v 40.0234 C 192,162.65322 185.19291,168 176.73746,168 H 55.26254 C 46.807093,168 40,162.65322 40,156.0117 V 115.9883 C 40,109.34678 46.807093,104 55.26254,104 Z" />
    </g>
    <text
       xml:space="preserve"
       style="font-style:normal;font-weight:normal;font-size:40px;line-height:1.25;font-family:sans-serif;fill:#ffffff;fill-opacity:1;stroke:none;"
       x="56.507317"
       y="137.36584"
       id="text23"
       inkscape:label="text23"><tspan
         sodipodi:role="line"
         id="tspan21"
         x="56.507317"
         y="137.36584" /></text>
  </g>
</svg>
