<?xml version="1.0" encoding="UTF-8" standalone="no"?>
<svg
   xmlns:dc="http://purl.org/dc/elements/1.1/"
   xmlns:cc="http://creativecommons.org/ns#"
   xmlns:rdf="http://www.w3.org/1999/02/22-rdf-syntax-ns#"
   xmlns:svg="http://www.w3.org/2000/svg"
   xmlns="http://www.w3.org/2000/svg"
   xmlns:sodipodi="http://sodipodi.sourceforge.net/DTD/sodipodi-0.dtd"
   xmlns:inkscape="http://www.inkscape.org/namespaces/inkscape"
   height="256"
   viewBox="0 0 256 256"
   width="256"
   version="1.1"
   id="svg4"
   sodipodi:docname="open.svg"
   inkscape:version="1.0.1 (3bc2e813f5, 2020-09-07)"
   inkscape:export-filename="C:\Users\mauro\Documents\Github\parquet-viewer\src\res\imgs\open.png"
   inkscape:export-xdpi="96"
   inkscape:export-ydpi="96">
  <metadata
     id="metadata10">
    <rdf:RDF>
      <cc:Work
         rdf:about="">
        <dc:format>image/svg+xml</dc:format>
        <dc:type
           rdf:resource="http://purl.org/dc/dcmitype/StillImage" />
        <dc:title></dc:title>
      </cc:Work>
    </rdf:RDF>
  </metadata>
  <defs
     id="defs8" />
  <sodipodi:namedview
     pagecolor="#ffffff"
     bordercolor="#666666"
     borderopacity="1"
     objecttolerance="10"
     gridtolerance="10"
     guidetolerance="10"
     inkscape:pageopacity="0"
     inkscape:pageshadow="2"
     inkscape:window-width="1920"
     inkscape:window-height="991"
     id="namedview6"
     showgrid="false"
     inkscape:pagecheckerboard="true"
     inkscape:zoom="1.5099676"
     inkscape:cx="-125.39526"
     inkscape:cy="20.603563"
     inkscape:window-x="-9"
     inkscape:window-y="-9"
     inkscape:window-maximized="1"
     inkscape:current-layer="svg4" />
  <path
     d="m 19.814918,211.05714 c 2.045905,3.07986 5.488745,4.93876 9.184572,4.93876 h 164.99232 c 4.3998,0 8.38162,-2.61787 10.10853,-6.66569 L 237.09881,132.3338 A 10.977489,10.977489 0 0 0 226.99028,117.00051 H 215.99079 V 84.002049 c 0,-12.132436 -9.86654,-21.998977 -21.99898,-21.998977 H 120.79022 L 92.67553,40.004095 H 39.998979 c -12.132435,0 -21.998977,9.866542 -21.998977,21.998977 V 204.99642 h 0.077 a 10.999488,10.999488 0 0 0 1.73792,6.06072 z M 193.99181,84.002049 V 117.00051 H 61.997956 c -4.399795,0 -8.38161,2.61788 -10.10853,6.66569 L 39.998979,151.41791 V 84.002049 Z"
     id="path2"
     style="fill:#ffffff;stroke-width:10.9994" />
</svg>
