<?xml version="1.0" encoding="UTF-8" standalone="no"?>
<svg
   xmlns:dc="http://purl.org/dc/elements/1.1/"
   xmlns:cc="http://creativecommons.org/ns#"
   xmlns:rdf="http://www.w3.org/1999/02/22-rdf-syntax-ns#"
   xmlns:svg="http://www.w3.org/2000/svg"
   xmlns="http://www.w3.org/2000/svg"
   xmlns:sodipodi="http://sodipodi.sourceforge.net/DTD/sodipodi-0.dtd"
   xmlns:inkscape="http://www.inkscape.org/namespaces/inkscape"
   height="256"
   viewBox="0 0 256 256"
   width="256"
   version="1.1"
   id="svg11"
   sodipodi:docname="save_csv.svg"
   inkscape:version="1.0.1 (3bc2e813f5, 2020-09-07)"
   inkscape:export-filename="C:\Users\mauro\Documents\Github\parquet-viewer\src\res\imgs\save_csv.png"
   inkscape:export-xdpi="96"
   inkscape:export-ydpi="96">
  <metadata
     id="metadata17">
    <rdf:RDF>
      <cc:Work
         rdf:about="">
        <dc:format>image/svg+xml</dc:format>
        <dc:type
           rdf:resource="http://purl.org/dc/dcmitype/StillImage" />
        <dc:title></dc:title>
      </cc:Work>
    </rdf:RDF>
  </metadata>
  <defs
     id="defs15">
    <inkscape:path-effect
       effect="powerclip"
       id="path-effect168"
       is_visible="true"
       lpeversion="1"
       inverse="true"
       flatten="false"
       hide_clip="false"
       message="Use fill-rule evenodd on &lt;b&gt;fill and stroke&lt;/b&gt; dialog if no flatten result after convert clip to paths." />
    <clipPath
       clipPathUnits="userSpaceOnUse"
       id="clipPath158">
      <g
         aria-label="CSV"
         id="g166"
         style="font-style:normal;font-weight:normal;font-size:40px;line-height:1.25;font-family:sans-serif;display:none;fill:#ffffff;fill-opacity:1;stroke:none">
        <path
           d="m 96.966797,148.95898 q -2.070313,1.07422 -4.316406,1.6211 -2.246094,0.54687 -4.6875,0.54687 -7.285157,0 -11.542969,-4.0625 -4.257813,-4.08203 -4.257813,-11.05468 0,-6.99219 4.257813,-11.05469 4.257812,-4.08203 11.542969,-4.08203 2.441406,0 4.6875,0.54687 2.246093,0.54688 4.316406,1.6211 v 6.03515 q -2.089844,-1.42578 -4.121094,-2.08984 -2.03125,-0.66406 -4.277344,-0.66406 -4.023437,0 -6.328125,2.57812 -2.304687,2.57813 -2.304687,7.10938 0,4.51171 2.304687,7.08984 2.304688,2.57812 6.328125,2.57812 2.246094,0 4.277344,-0.66406 2.03125,-0.66406 4.121094,-2.08984 z"
           style="font-style:normal;font-variant:normal;font-weight:bold;font-stretch:normal;font-family:'DejaVu Sans';-inkscape-font-specification:'DejaVu Sans Bold'"
           id="path160" />
        <path
           d="m 124.23242,122.31836 v 6.17187 q -2.40234,-1.07421 -4.6875,-1.62109 -2.28515,-0.54687 -4.3164,-0.54687 -2.69532,0 -3.98438,0.74218 -1.28906,0.74219 -1.28906,2.30469 0,1.17188 0.85937,1.83594 0.87891,0.64453 3.16407,1.11328 l 3.20312,0.64453 q 4.86328,0.97656 6.91406,2.96875 2.05078,1.99219 2.05078,5.66406 0,4.82422 -2.87109,7.1875 -2.85156,2.34375 -8.73047,2.34375 -2.77344,0 -5.5664,-0.52734 -2.79297,-0.52734 -5.58594,-1.5625 v -6.34766 q 2.79297,1.48438 5.39062,2.2461 2.61719,0.74218 5.03907,0.74218 2.46093,0 3.76953,-0.82031 1.30859,-0.82031 1.30859,-2.34375 0,-1.36719 -0.89844,-2.10937 -0.8789,-0.74219 -3.53515,-1.32813 l -2.91016,-0.64453 q -4.375,-0.9375 -6.40625,-2.98828 -2.01172,-2.05078 -2.01172,-5.52734 0,-4.35547 2.8125,-6.69922 2.8125,-2.34375 8.08594,-2.34375 2.40234,0 4.94141,0.37109 2.53906,0.35156 5.2539,1.07422 z"
           style="font-style:normal;font-variant:normal;font-weight:bold;font-stretch:normal;font-family:'DejaVu Sans';-inkscape-font-specification:'DejaVu Sans Bold'"
           id="path162" />
        <path
           d="m 129.27148,121.40039 h 7.5586 l 7.73437,21.52344 7.71485,-21.52344 h 7.55859 l -10.80078,29.16016 h -8.96484 z"
           style="font-style:normal;font-variant:normal;font-weight:bold;font-stretch:normal;font-family:'DejaVu Sans';-inkscape-font-specification:'DejaVu Sans Bold'"
           id="path164" />
      </g>
      <path
         id="lpe_path-effect168"
         style="font-style:normal;font-weight:normal;font-size:40px;line-height:1.25;font-family:sans-serif;fill:#ffffff;fill-opacity:1;stroke:none"
         class="powerclip"
         d="m 35,99 h 162 v 74 H 35 Z m 61.966797,49.95898 v -6.03515 q -2.089844,1.42578 -4.121094,2.08984 -2.03125,0.66406 -4.277344,0.66406 -4.023437,0 -6.328125,-2.57812 -2.304687,-2.57813 -2.304687,-7.08984 0,-4.53125 2.304687,-7.10938 2.304688,-2.57812 6.328125,-2.57812 2.246094,0 4.277344,0.66406 2.03125,0.66406 4.121094,2.08984 v -6.03515 q -2.070313,-1.07422 -4.316406,-1.6211 -2.246094,-0.54687 -4.6875,-0.54687 -7.285157,0 -11.542969,4.08203 -4.257813,4.0625 -4.257813,11.05469 0,6.97265 4.257813,11.05468 4.257812,4.0625 11.542969,4.0625 2.441406,0 4.6875,-0.54687 2.246093,-0.54688 4.316406,-1.6211 z m 27.265623,-26.64062 q -2.71484,-0.72266 -5.2539,-1.07422 -2.53907,-0.37109 -4.94141,-0.37109 -5.27344,0 -8.08594,2.34375 -2.8125,2.34375 -2.8125,6.69922 0,3.47656 2.01172,5.52734 2.03125,2.05078 6.40625,2.98828 l 2.91016,0.64453 q 2.65625,0.58594 3.53515,1.32813 0.89844,0.74218 0.89844,2.10937 0,1.52344 -1.30859,2.34375 -1.3086,0.82031 -3.76953,0.82031 -2.42188,0 -5.03907,-0.74218 -2.59765,-0.76172 -5.39062,-2.2461 v 6.34766 q 2.79297,1.03516 5.58594,1.5625 2.79296,0.52734 5.5664,0.52734 5.87891,0 8.73047,-2.34375 2.87109,-2.36328 2.87109,-7.1875 0,-3.67187 -2.05078,-5.66406 -2.05078,-1.99219 -6.91406,-2.96875 l -3.20312,-0.64453 q -2.28516,-0.46875 -3.16407,-1.11328 -0.85937,-0.66406 -0.85937,-1.83594 0,-1.5625 1.28906,-2.30469 1.28906,-0.74218 3.98438,-0.74218 2.03125,0 4.3164,0.54687 2.28516,0.54688 4.6875,1.62109 z m 5.03906,-0.91797 10.80079,29.16016 h 8.96484 l 10.80078,-29.16016 h -7.55859 l -7.71485,21.52344 -7.73437,-21.52344 z" />
    </clipPath>
  </defs>
  <sodipodi:namedview
     pagecolor="#ffffff"
     bordercolor="#666666"
     borderopacity="1"
     objecttolerance="10"
     gridtolerance="10"
     guidetolerance="10"
     inkscape:pageopacity="0"
     inkscape:pageshadow="2"
     inkscape:window-width="1920"
     inkscape:window-height="991"
     id="namedview13"
     showgrid="false"
     inkscape:pagecheckerboard="true"
     showguides="false"
     inkscape:zoom="3.203125"
     inkscape:cx="92.687941"
     inkscape:cy="134.77218"
     inkscape:window-x="-9"
     inkscape:window-y="-9"
     inkscape:window-maximized="1"
     inkscape:current-layer="g8" />
  <g
     id="csv">
    <g
       id="g8">
      <path
         d="M200,8H64A16.018,16.018,0,0,0,48,24V96h8V24a8.009,8.009,0,0,1,8-8H200a8.009,8.009,0,0,1,8,8V191.029a8.113,8.113,0,0,1-.065.971H172a12.014,12.014,0,0,0-12,12v35.935a8.113,8.113,0,0,1-.971.065H64a8.009,8.009,0,0,1-8-8V176H48v56a16.018,16.018,0,0,0,16,16h95.029a15.9,15.9,0,0,0,11.314-4.686l40.971-40.971A15.9,15.9,0,0,0,216,191.029V24A16.018,16.018,0,0,0,200,8Z"
         id="path6"
         style="fill:#ffffff" />
      <path
         style="fill:#ffffff;stroke-width:1.19769"
         id="rect19"
         width="152"
         height="64"
         x="40"
         y="104"
         rx="10"
         ry="10"
         clip-path="url(#clipPath158)"
         inkscape:path-effect="#path-effect168"
         d="m 50,104 h 132 c 5.54,0 10,4.46 10,10 v 44 c 0,5.54 -4.46,10 -10,10 H 50 c -5.54,0 -10,-4.46 -10,-10 v -44 c 0,-5.54 4.46,-10 10,-10 z"
         sodipodi:type="rect" />
    </g>
    <text
       xml:space="preserve"
       style="font-style:normal;font-weight:normal;font-size:40px;line-height:1.25;font-family:sans-serif;fill:#ffffff;fill-opacity:1;stroke:none;"
       x="56.507317"
       y="137.36584"
       id="text23"><tspan
         sodipodi:role="line"
         id="tspan21"
         x="56.507317"
         y="137.36584" /></text>
  </g>
</svg>
