<svg viewBox="0 0 800 600" version="1.1" xmlns="http://www.w3.org/2000/svg" xmlns:xlink="http://www.w3.org/1999/xlink" xml:space="preserve" xmlns:serif="http://www.serif.com/" style="fill-rule:evenodd;clip-rule:evenodd;stroke-linejoin:round;stroke-miterlimit:2;">
    <rect x="0" y="0" width="800" height="600" style="fill:rgb(235,235,235);"/>
    <g transform="matrix(1,0,0,1,48.4289,-160.587)">
        <path d="M357.749,479.462C356.437,479.674 355.096,479.791 353.733,479.804C342.702,479.839 320.641,479.834 320.641,479.834L322.101,466.855C327.192,466.865 344.419,466.891 353.751,466.803L357.749,479.462Z" style="fill:url(#_Linear1);"/>
    </g>
    <g transform="matrix(1,0,0,1,48.4289,-160.587)">
        <path d="M357.749,479.462C356.437,479.674 355.096,479.791 353.733,479.804C342.702,479.839 320.641,479.834 320.641,479.834L322.101,466.855C327.192,466.865 344.419,466.891 353.751,466.803" style="fill:none;"/>
    </g>
    <path d="M353.439,324.61L351.986,337.529C351.986,337.529 343.043,337.513 338.572,337.499C326.478,337.384 315.15,328.784 311.702,317.203C309.029,308.226 311.242,298.059 317.185,290.855C322.239,284.73 329.977,280.863 338.572,280.782C345.172,280.761 358.373,280.745 358.373,280.745L356.911,293.741C353.215,293.753 343.956,293.781 338.777,293.781C334.379,293.795 329.876,295.879 327.082,299.24C322.983,304.172 322.011,311.637 325.91,317.558C328.683,321.77 333.579,324.451 338.655,324.499C342.091,324.511 350.013,324.598 353.439,324.61L353.439,324.61Z" style="fill:url(#_Linear2);"/>
    <g transform="matrix(1.33112,0,0,1.61992,115.281,-113.315)">
        <path d="M259.906,243.282C270.724,243.366 280.64,251.105 281.058,260.112C281.486,269.368 271.862,278.201 259.906,278.294C248.26,278.325 236.615,278.325 224.969,278.294C215.883,278.223 207.274,272.934 204.684,265.785C200.968,255.531 210.919,243.391 224.969,243.282C236.615,243.251 248.26,243.251 259.906,243.282ZM225.123,251.306C216.925,251.328 210.441,259.967 215.573,266.127C217.67,268.644 221.279,270.24 225.031,270.269C236.661,270.301 248.291,270.359 259.92,270.269C267.033,270.176 273.068,263.728 270.747,257.859C269.257,254.091 264.673,251.306 259.752,251.306C248.209,251.306 236.666,251.306 225.123,251.306Z" style="fill:url(#_Linear3);"/>
    </g>
    <g transform="matrix(1,0,0,1,48.4289,-160.587)">
        <path d="M353.751,466.803C363.508,466.649 371.649,455.459 367.847,445.822C365.628,440.195 359.909,436.185 353.751,436.087C346.522,436.019 331.036,436.031 325.568,436.038L327.029,423.05C327.029,423.05 344.831,423.058 353.733,423.086C368.133,423.223 381.333,435.76 381.888,450.35C382.41,464.059 371.745,477.195 357.749,479.462" style="fill:url(#_Linear4);"/>
    </g>
    <g transform="matrix(1,0,0,1,48.4289,-160.587)">
        <path d="M353.751,466.803C363.508,466.649 371.649,455.459 367.847,445.822C365.628,440.195 359.909,436.185 353.751,436.087C346.522,436.019 331.036,436.031 325.568,436.038L327.029,423.05C327.029,423.05 344.831,423.058 353.733,423.086C368.133,423.223 381.333,435.76 381.888,450.35C382.41,464.059 371.745,477.195 357.749,479.462" style="fill:none;"/>
    </g>
    <defs>
        <linearGradient id="_Linear1" x1="0" y1="0" x2="1" y2="0" gradientUnits="userSpaceOnUse" gradientTransform="matrix(3.47649e-15,56.7754,-56.7754,3.47649e-15,338.267,423.059)"><stop offset="0" style="stop-color:rgb(102,102,102);stop-opacity:1"/><stop offset="1" style="stop-color:rgb(158,158,158);stop-opacity:1"/></linearGradient>
        <linearGradient id="_Linear2" x1="0" y1="0" x2="1" y2="0" gradientUnits="userSpaceOnUse" gradientTransform="matrix(-0.0419897,56.7913,-56.7913,-0.0419897,344.281,280.745)"><stop offset="0" style="stop-color:rgb(115,115,115);stop-opacity:1"/><stop offset="1" style="stop-color:rgb(168,168,168);stop-opacity:1"/></linearGradient>
        <linearGradient id="_Linear3" x1="0" y1="0" x2="1" y2="0" gradientUnits="userSpaceOnUse" gradientTransform="matrix(0.0621141,35.0581,-42.6644,0.0510402,242.437,243.259)"><stop offset="0" style="stop-color:rgb(102,102,102);stop-opacity:1"/><stop offset="1" style="stop-color:rgb(158,158,158);stop-opacity:1"/></linearGradient>
        <linearGradient id="_Linear4" x1="0" y1="0" x2="1" y2="0" gradientUnits="userSpaceOnUse" gradientTransform="matrix(3.47649e-15,56.7754,-56.7754,3.47649e-15,338.267,423.059)"><stop offset="0" style="stop-color:rgb(102,102,102);stop-opacity:1"/><stop offset="1" style="stop-color:rgb(158,158,158);stop-opacity:1"/></linearGradient>
    </defs>
</svg>
