<?xml version="1.0" encoding="UTF-8" standalone="no"?>
<svg
   enable-background="new 0 0 24 24"
   height="24px"
   viewBox="0 0 24 24"
   width="24px"
   fill="#000000"
   version="1.1"
   id="svg10"
   sodipodi:docname="Logo.svg"
   inkscape:version="1.1.1 (3bf5ae0d25, 2021-09-20)"
   xmlns:inkscape="http://www.inkscape.org/namespaces/inkscape"
   xmlns:sodipodi="http://sodipodi.sourceforge.net/DTD/sodipodi-0.dtd"
   xmlns="http://www.w3.org/2000/svg"
   xmlns:svg="http://www.w3.org/2000/svg">
  <defs
     id="defs14" />
  <sodipodi:namedview
     id="namedview12"
     pagecolor="#ffffff"
     bordercolor="#666666"
     borderopacity="1.0"
     inkscape:pageshadow="2"
     inkscape:pageopacity="0.0"
     inkscape:pagecheckerboard="0"
     showgrid="false"
     inkscape:zoom="29.958333"
     inkscape:cx="12"
     inkscape:cy="12"
     inkscape:window-width="2560"
     inkscape:window-height="1377"
     inkscape:window-x="2552"
     inkscape:window-y="-8"
     inkscape:window-maximized="1"
     inkscape:current-layer="svg10" />
  <g
     id="g4">
    <rect
       fill="none"
       height="24"
       width="24"
       id="rect2" />
  </g>
  <g
     id="g8">
    <path
       d="M18,23H4c-1.1,0-2-0.9-2-2V7h2v14h14V23z M15,1H8C6.9,1,6.01,1.9,6.01,3L6,17c0,1.1,0.89,2,1.99,2H19c1.1,0,2-0.9,2-2V7 L15,1z M16.5,15h-6v-2h6V15z M16.5,9h-2v2h-2V9h-2V7h2V5h2v2h2V9z"
       id="path6" />
  </g>
  <path
     style="fill:#1b1e54;stroke-width:0.0333797"
     d="M 7.4937413,18.913344 C 7.1670921,18.818331 6.9141019,18.673846 6.6625103,18.438622 6.3917562,18.185481 6.2059097,17.894923 6.0990682,17.557719 l -0.074033,-0.233658 0.0028,-7.293463 c 0.00263,-6.8380644 0.00645,-7.3070104 0.06126,-7.5104311 C 6.2784224,1.8174433 6.8352192,1.2617987 7.5274939,1.0847447 7.7801301,1.0201312 7.8991304,1.0180807 11.39623,1.0180807 h 3.608082 l 2.996576,2.9967147 2.996575,2.9967148 -0.0092,5.1562758 -0.0092,5.156275 -0.09105,0.267038 c -0.180186,0.528483 -0.549149,0.948863 -1.037346,1.181903 -0.150455,0.07182 -0.353153,0.146954 -0.450441,0.166967 -0.123937,0.02549 -1.902502,0.03567 -5.941585,0.03401 -5.3812706,-0.0022 -5.7780207,-0.0063 -5.9649777,-0.06063 z m 9.0292077,-4.927252 v -1.018081 h -3.020863 -3.020862 v 1.018081 1.01808 h 3.020862 3.020863 z M 14.520167,10.030598 V 9.0292072 h 1.001391 1.001391 V 8.0111266 6.9930459 H 15.521558 14.520167 V 5.9916551 4.9902643 h -1.018081 -1.01808 v 1.0013908 1.0013908 h -1.001391 -1.001391 v 1.0180807 1.0180806 h 1.001391 1.001391 v 1.0013908 1.001391 h 1.01808 1.018081 z"
     id="path868" />
  <path
     style="fill:#1b1e54;stroke-width:0.0333797"
     d="M 3.5087409,22.913694 C 2.8450433,22.739878 2.319984,22.224806 2.0811021,21.513213 2.0220581,21.33733 2.0190962,21.029476 2.0105302,14.178025 l -0.00894,-7.1515994 h 0.9852974 0.9852973 v 6.9930454 6.993046 h 7.0097351 7.009736 v 0.984701 0.984701 l -7.11822,-0.0018 c -6.9265983,-0.0018 -7.1248542,-0.0036 -7.3646938,-0.06639 z"
     id="path907" />
</svg>
